<mxfile host="app.diagrams.net" modified="2023-09-28T14:34:01.570Z" agent="Mozilla/5.0 (Windows NT 10.0; Win64; x64) AppleWebKit/537.36 (KHTML, like Gecko) Chrome/117.0.0.0 Safari/537.36" etag="e0oV320s3b41Hi8LHxxM" version="22.0.0" type="device">
  <diagram name="Página-1" id="xi7qXVO_fqv8MnFyefqD">
    <mxGraphModel dx="925" dy="745" grid="1" gridSize="10" guides="1" tooltips="1" connect="1" arrows="1" fold="1" page="1" pageScale="1" pageWidth="827" pageHeight="1169" math="0" shadow="0">
      <root>
        <mxCell id="0" />
        <mxCell id="1" parent="0" />
        <mxCell id="Mq-xC2FTaYRsKWfVQU7o-1" value="" style="ellipse;html=1;shape=startState;fillColor=#000000;strokeColor=#ff0000;" vertex="1" parent="1">
          <mxGeometry x="360" y="40" width="30" height="30" as="geometry" />
        </mxCell>
        <mxCell id="Mq-xC2FTaYRsKWfVQU7o-2" value="" style="edgeStyle=orthogonalEdgeStyle;html=1;verticalAlign=bottom;endArrow=open;endSize=8;strokeColor=#ff0000;rounded=0;" edge="1" source="Mq-xC2FTaYRsKWfVQU7o-1" parent="1">
          <mxGeometry relative="1" as="geometry">
            <mxPoint x="375" y="130" as="targetPoint" />
          </mxGeometry>
        </mxCell>
        <mxCell id="Mq-xC2FTaYRsKWfVQU7o-5" style="edgeStyle=orthogonalEdgeStyle;rounded=0;orthogonalLoop=1;jettySize=auto;html=1;entryX=0.5;entryY=0;entryDx=0;entryDy=0;" edge="1" parent="1" source="Mq-xC2FTaYRsKWfVQU7o-3" target="Mq-xC2FTaYRsKWfVQU7o-4">
          <mxGeometry relative="1" as="geometry" />
        </mxCell>
        <mxCell id="Mq-xC2FTaYRsKWfVQU7o-3" value="Acidente veicular" style="rounded=1;whiteSpace=wrap;html=1;" vertex="1" parent="1">
          <mxGeometry x="315" y="130" width="120" height="60" as="geometry" />
        </mxCell>
        <mxCell id="Mq-xC2FTaYRsKWfVQU7o-7" style="edgeStyle=orthogonalEdgeStyle;rounded=0;orthogonalLoop=1;jettySize=auto;html=1;entryX=0.5;entryY=0;entryDx=0;entryDy=0;" edge="1" parent="1" source="Mq-xC2FTaYRsKWfVQU7o-4" target="Mq-xC2FTaYRsKWfVQU7o-6">
          <mxGeometry relative="1" as="geometry" />
        </mxCell>
        <mxCell id="Mq-xC2FTaYRsKWfVQU7o-4" value="Acionar a polícia para emissão B.O" style="rounded=1;whiteSpace=wrap;html=1;" vertex="1" parent="1">
          <mxGeometry x="315" y="250" width="120" height="60" as="geometry" />
        </mxCell>
        <mxCell id="Mq-xC2FTaYRsKWfVQU7o-9" style="edgeStyle=orthogonalEdgeStyle;rounded=0;orthogonalLoop=1;jettySize=auto;html=1;entryX=0.5;entryY=0;entryDx=0;entryDy=0;" edge="1" parent="1" source="Mq-xC2FTaYRsKWfVQU7o-6" target="Mq-xC2FTaYRsKWfVQU7o-8">
          <mxGeometry relative="1" as="geometry" />
        </mxCell>
        <mxCell id="Mq-xC2FTaYRsKWfVQU7o-6" value="Notificar a seguradora" style="rounded=1;whiteSpace=wrap;html=1;" vertex="1" parent="1">
          <mxGeometry x="315" y="370" width="120" height="60" as="geometry" />
        </mxCell>
        <mxCell id="Mq-xC2FTaYRsKWfVQU7o-11" style="edgeStyle=orthogonalEdgeStyle;rounded=0;orthogonalLoop=1;jettySize=auto;html=1;entryX=0.5;entryY=0;entryDx=0;entryDy=0;" edge="1" parent="1" source="Mq-xC2FTaYRsKWfVQU7o-8" target="Mq-xC2FTaYRsKWfVQU7o-10">
          <mxGeometry relative="1" as="geometry" />
        </mxCell>
        <mxCell id="Mq-xC2FTaYRsKWfVQU7o-8" value="Condições veicular" style="rounded=1;whiteSpace=wrap;html=1;" vertex="1" parent="1">
          <mxGeometry x="315" y="490" width="120" height="60" as="geometry" />
        </mxCell>
        <mxCell id="Mq-xC2FTaYRsKWfVQU7o-13" style="edgeStyle=orthogonalEdgeStyle;rounded=0;orthogonalLoop=1;jettySize=auto;html=1;" edge="1" parent="1" source="Mq-xC2FTaYRsKWfVQU7o-10" target="Mq-xC2FTaYRsKWfVQU7o-12">
          <mxGeometry relative="1" as="geometry" />
        </mxCell>
        <mxCell id="Mq-xC2FTaYRsKWfVQU7o-15" style="edgeStyle=orthogonalEdgeStyle;rounded=0;orthogonalLoop=1;jettySize=auto;html=1;entryX=1;entryY=0.5;entryDx=0;entryDy=0;" edge="1" parent="1" source="Mq-xC2FTaYRsKWfVQU7o-10" target="Mq-xC2FTaYRsKWfVQU7o-14">
          <mxGeometry relative="1" as="geometry" />
        </mxCell>
        <mxCell id="Mq-xC2FTaYRsKWfVQU7o-10" value="" style="rhombus;whiteSpace=wrap;html=1;" vertex="1" parent="1">
          <mxGeometry x="347" y="630" width="56" height="50" as="geometry" />
        </mxCell>
        <mxCell id="Mq-xC2FTaYRsKWfVQU7o-33" style="edgeStyle=orthogonalEdgeStyle;rounded=0;orthogonalLoop=1;jettySize=auto;html=1;entryX=1;entryY=1;entryDx=0;entryDy=0;" edge="1" parent="1" source="Mq-xC2FTaYRsKWfVQU7o-12" target="Mq-xC2FTaYRsKWfVQU7o-30">
          <mxGeometry relative="1" as="geometry">
            <Array as="points">
              <mxPoint x="790" y="655" />
              <mxPoint x="790" y="1125" />
              <mxPoint x="191" y="1125" />
            </Array>
          </mxGeometry>
        </mxCell>
        <mxCell id="Mq-xC2FTaYRsKWfVQU7o-12" value="Seguradora leva para oficina" style="rounded=1;whiteSpace=wrap;html=1;" vertex="1" parent="1">
          <mxGeometry x="590" y="625" width="120" height="60" as="geometry" />
        </mxCell>
        <mxCell id="Mq-xC2FTaYRsKWfVQU7o-19" style="edgeStyle=orthogonalEdgeStyle;rounded=0;orthogonalLoop=1;jettySize=auto;html=1;" edge="1" parent="1" source="Mq-xC2FTaYRsKWfVQU7o-14" target="Mq-xC2FTaYRsKWfVQU7o-18">
          <mxGeometry relative="1" as="geometry" />
        </mxCell>
        <mxCell id="Mq-xC2FTaYRsKWfVQU7o-14" value="segurado aciona o reboque para levar para oficina" style="rounded=1;whiteSpace=wrap;html=1;" vertex="1" parent="1">
          <mxGeometry x="50" y="625" width="120" height="60" as="geometry" />
        </mxCell>
        <mxCell id="Mq-xC2FTaYRsKWfVQU7o-16" value="Se condição de trafegar" style="text;html=1;align=center;verticalAlign=middle;resizable=0;points=[];autosize=1;strokeColor=none;fillColor=none;" vertex="1" parent="1">
          <mxGeometry x="414" y="630" width="150" height="30" as="geometry" />
        </mxCell>
        <mxCell id="Mq-xC2FTaYRsKWfVQU7o-17" value="Se não condição de trafegar" style="text;html=1;align=center;verticalAlign=middle;resizable=0;points=[];autosize=1;strokeColor=none;fillColor=none;" vertex="1" parent="1">
          <mxGeometry x="177" y="630" width="170" height="30" as="geometry" />
        </mxCell>
        <mxCell id="Mq-xC2FTaYRsKWfVQU7o-21" value="" style="edgeStyle=orthogonalEdgeStyle;rounded=0;orthogonalLoop=1;jettySize=auto;html=1;" edge="1" parent="1" source="Mq-xC2FTaYRsKWfVQU7o-18" target="Mq-xC2FTaYRsKWfVQU7o-20">
          <mxGeometry relative="1" as="geometry" />
        </mxCell>
        <mxCell id="Mq-xC2FTaYRsKWfVQU7o-18" value="Avaliar as condições de danos veicular" style="rounded=1;whiteSpace=wrap;html=1;" vertex="1" parent="1">
          <mxGeometry x="50" y="750" width="120" height="60" as="geometry" />
        </mxCell>
        <mxCell id="Mq-xC2FTaYRsKWfVQU7o-23" value="" style="edgeStyle=orthogonalEdgeStyle;rounded=0;orthogonalLoop=1;jettySize=auto;html=1;" edge="1" parent="1" source="Mq-xC2FTaYRsKWfVQU7o-20" target="Mq-xC2FTaYRsKWfVQU7o-22">
          <mxGeometry relative="1" as="geometry" />
        </mxCell>
        <mxCell id="Mq-xC2FTaYRsKWfVQU7o-25" style="edgeStyle=orthogonalEdgeStyle;rounded=0;orthogonalLoop=1;jettySize=auto;html=1;entryX=0;entryY=0.5;entryDx=0;entryDy=0;" edge="1" parent="1" source="Mq-xC2FTaYRsKWfVQU7o-20" target="Mq-xC2FTaYRsKWfVQU7o-24">
          <mxGeometry relative="1" as="geometry" />
        </mxCell>
        <mxCell id="Mq-xC2FTaYRsKWfVQU7o-20" value="" style="rhombus;whiteSpace=wrap;html=1;" vertex="1" parent="1">
          <mxGeometry x="379" y="870" width="70" height="50" as="geometry" />
        </mxCell>
        <mxCell id="Mq-xC2FTaYRsKWfVQU7o-29" style="edgeStyle=orthogonalEdgeStyle;rounded=0;orthogonalLoop=1;jettySize=auto;html=1;entryX=0.5;entryY=0;entryDx=0;entryDy=0;" edge="1" parent="1" source="Mq-xC2FTaYRsKWfVQU7o-22" target="Mq-xC2FTaYRsKWfVQU7o-28">
          <mxGeometry relative="1" as="geometry" />
        </mxCell>
        <mxCell id="Mq-xC2FTaYRsKWfVQU7o-22" value="Consertar o automóvel e cobra a franquia" style="rounded=1;whiteSpace=wrap;html=1;" vertex="1" parent="1">
          <mxGeometry x="120" y="865" width="120" height="60" as="geometry" />
        </mxCell>
        <mxCell id="Mq-xC2FTaYRsKWfVQU7o-32" style="edgeStyle=orthogonalEdgeStyle;rounded=0;orthogonalLoop=1;jettySize=auto;html=1;entryX=1;entryY=0.5;entryDx=0;entryDy=0;" edge="1" parent="1" source="Mq-xC2FTaYRsKWfVQU7o-24" target="Mq-xC2FTaYRsKWfVQU7o-30">
          <mxGeometry relative="1" as="geometry">
            <Array as="points">
              <mxPoint x="640" y="1125" />
            </Array>
          </mxGeometry>
        </mxCell>
        <mxCell id="Mq-xC2FTaYRsKWfVQU7o-24" value="Depositar valor assegurado (prêmio)" style="rounded=1;whiteSpace=wrap;html=1;" vertex="1" parent="1">
          <mxGeometry x="580" y="865" width="120" height="60" as="geometry" />
        </mxCell>
        <mxCell id="Mq-xC2FTaYRsKWfVQU7o-26" value="Se perda total" style="text;html=1;align=center;verticalAlign=middle;resizable=0;points=[];autosize=1;strokeColor=none;fillColor=none;" vertex="1" parent="1">
          <mxGeometry x="464" y="870" width="100" height="30" as="geometry" />
        </mxCell>
        <mxCell id="Mq-xC2FTaYRsKWfVQU7o-27" value="Se não perda total" style="text;html=1;align=center;verticalAlign=middle;resizable=0;points=[];autosize=1;strokeColor=none;fillColor=none;" vertex="1" parent="1">
          <mxGeometry x="250" y="870" width="120" height="30" as="geometry" />
        </mxCell>
        <mxCell id="Mq-xC2FTaYRsKWfVQU7o-31" style="edgeStyle=orthogonalEdgeStyle;rounded=0;orthogonalLoop=1;jettySize=auto;html=1;" edge="1" parent="1" source="Mq-xC2FTaYRsKWfVQU7o-28" target="Mq-xC2FTaYRsKWfVQU7o-30">
          <mxGeometry relative="1" as="geometry" />
        </mxCell>
        <mxCell id="Mq-xC2FTaYRsKWfVQU7o-28" value="Pagar a franquia" style="rounded=1;whiteSpace=wrap;html=1;" vertex="1" parent="1">
          <mxGeometry x="120" y="990" width="120" height="60" as="geometry" />
        </mxCell>
        <mxCell id="Mq-xC2FTaYRsKWfVQU7o-30" value="" style="ellipse;html=1;shape=endState;fillColor=#000000;strokeColor=#ff0000;" vertex="1" parent="1">
          <mxGeometry x="165" y="1110" width="30" height="30" as="geometry" />
        </mxCell>
      </root>
    </mxGraphModel>
  </diagram>
</mxfile>
